<svg xmlns="http://www.w3.org/2000/svg" xmlns:xlink="http://www.w3.org/1999/xlink" version="1.0" x="0px" y="0px" viewBox="0 0 54 67.5" style="enable-background:new 0 0 54 54;" xml:space="preserve"><g><path d="M36.32,8.56h8.65v0.7c0,0.49,0.4,0.88,0.91,0.88c0,0,0,0,0,0c2.27-0.08,4.56-0.75,4.56-2.07c0-1.33-2.37-2.01-4.55-2.07   c-0.23-0.01-0.47,0.07-0.64,0.24c-0.18,0.17-0.28,0.4-0.28,0.64v0.69h-8.94c-0.26-0.89-0.49-1.67-0.66-2.26   C35.02,4.14,35,4.08,35,4.08c0,0,0,0,0,0c-0.44-1.24-1.81-1.89-3.05-1.44c-1.23,0.44-1.88,1.81-1.45,3   c0.01,0.03,0.02,0.09,0.05,0.18H12.39c-1.23,0-2.24,1.01-2.24,2.25c0,0.46,0.14,0.88,0.38,1.24H6.92c-0.28,0-0.5,0.22-0.5,0.5v3.49   c0,0.28,0.22,0.5,0.5,0.5h1.12v2.99c0,0.03,0.01,0.06,0.02,0.09c-3.78,3.02-6.02,7.63-6.02,12.51v19.64c0,1.37,1.12,2.48,2.49,2.48   h27.08c1.37,0,2.48-1.11,2.48-2.48V29.38c0-4.28-1.67-8.3-4.7-11.33c-0.42-0.42-0.86-0.8-1.32-1.16c0.01-0.03,0.02-0.06,0.02-0.1   V13.8h1.12c0.28,0,0.5-0.22,0.5-0.5v-0.42h3.02c1.31,3.58,3.11,7.42,5.12,8.8c0.26,0.18,0.55,0.26,0.84,0.26   c0.36,0,0.71-0.13,0.96-0.39c0.54-0.54,0.27-1.33,0.11-1.79C38.97,17.46,37.43,12.33,36.32,8.56z M49.44,8.07   c0,0.28-1.19,0.97-3.47,1.07L45.94,7C48.25,7.08,49.44,7.78,49.44,8.07z M11.15,8.07c0-0.69,0.56-1.25,1.24-1.25h18.42   c0.17,0.64,0.42,1.5,0.72,2.49h-2.32H12.39C11.71,9.31,11.15,8.75,11.15,8.07z M10.8,30.21c0.04,3.97,3.28,7.18,7.27,7.18   c3.98,0,7.21-3.21,7.26-7.18h7.76v15.73H3.04V30.21H10.8z M24.33,30.13c0,3.45-2.81,6.26-6.26,6.26c-3.46,0-6.27-2.81-6.27-6.26   c0-3.46,2.81-6.27,6.27-6.27C21.52,23.86,24.33,26.67,24.33,30.13z M31.61,50.5H4.53c-0.82,0-1.49-0.66-1.49-1.48v-2.08h30.05v2.08   C33.09,49.84,32.43,50.5,31.61,50.5z M33.08,29.21h-7.82c-0.45-3.58-3.5-6.35-7.2-6.35c-3.7,0-6.75,2.78-7.21,6.35H3.05   c0.05-4.72,2.33-9.15,6.12-11.93h17.79c0.6,0.44,1.18,0.93,1.72,1.47C31.49,21.55,33.04,25.26,33.08,29.21z M27.1,16.28H9.04V13.8   H27.1V16.28z M28.72,12.8H7.42v-2.49h21.3V12.8z M29.72,11.88v-1.57h2.13c0.16,0.5,0.34,1.03,0.53,1.57H29.72z M38.96,20.85   c-0.15,0.15-0.4,0.13-0.53,0.01c-4.29-3.78-6.94-15.44-6.96-15.51c-0.26-0.72,0.11-1.52,0.83-1.77c0.15-0.05,0.31-0.08,0.47-0.08   c0.57,0,1.1,0.35,1.3,0.91c0.02,0.06,0.15,0.49,0.35,1.18c0.91,3.11,3.33,11.37,4.45,14.59C38.91,20.32,39.06,20.75,38.96,20.85z"/><path d="M17.67,26.36c-0.25,0.35-2.47,3.42-2.47,4.85c0,1.59,1.29,2.88,2.87,2.88s2.87-1.29,2.87-2.88c0-1.43-2.22-4.5-2.47-4.85   C18.28,26.11,17.85,26.11,17.67,26.36z M18.07,33.1c-1.03,0-1.87-0.84-1.87-1.88c0-0.72,1.03-2.45,1.87-3.69   c0.85,1.24,1.87,2.97,1.87,3.69C19.94,32.25,19.1,33.1,18.07,33.1z"/><path d="M13.2,43.23H8.97c-0.28,0-0.5,0.22-0.5,0.5s0.22,0.5,0.5,0.5h4.23c0.28,0,0.5-0.22,0.5-0.5S13.48,43.23,13.2,43.23z"/><path d="M8.18,41.96h8.61c0.28,0,0.5-0.22,0.5-0.5s-0.22-0.5-0.5-0.5H8.18c-0.28,0-0.5,0.22-0.5,0.5S7.9,41.96,8.18,41.96z"/><path d="M19.14,41.96h8.02c0.28,0,0.5-0.22,0.5-0.5s-0.22-0.5-0.5-0.5h-8.02c-0.28,0-0.5,0.22-0.5,0.5S18.87,41.96,19.14,41.96z"/><path d="M15.05,43.73c0,0.28,0.22,0.5,0.5,0.5h12.41c0.28,0,0.5-0.22,0.5-0.5s-0.22-0.5-0.5-0.5H15.55   C15.28,43.23,15.05,43.45,15.05,43.73z"/><path d="M48.87,12.4c-0.19-0.26-0.62-0.26-0.81,0c-0.32,0.43-3.09,4.27-3.09,6.04c0,1.93,1.57,3.51,3.49,3.51s3.49-1.57,3.49-3.51   C51.96,16.68,49.18,12.83,48.87,12.4z M48.46,20.95c-1.38,0-2.49-1.12-2.49-2.51c0-0.96,1.4-3.3,2.49-4.88   c1.1,1.58,2.49,3.92,2.49,4.88C50.96,19.82,49.84,20.95,48.46,20.95z"/></g><text x="0" y="69" fill="#000000" font-size="5px" font-weight="bold" font-family="'Helvetica Neue', Helvetica, Arial-Unicode, Arial, Sans-serif">Created by Azam Ishaq</text><text x="0" y="74" fill="#000000" font-size="5px" font-weight="bold" font-family="'Helvetica Neue', Helvetica, Arial-Unicode, Arial, Sans-serif">from the Noun Project</text></svg>