<svg xmlns="http://www.w3.org/2000/svg" version="1.1" viewBox="-5.0 -10.0 110.0 135.0">
 <path d="m22.219 64.02h1.043c4.0586-0.14844 7.2695-3.4844 7.2695-7.5469 0-4.0586-3.2109-7.3945-7.2695-7.5469h-1.043c-0.86328 0-1.5625 0.69922-1.5625 1.5625v12.012c0.023438 0.84766 0.71484 1.5195 1.5625 1.5195zm1.5625-11.938c2.2422 0.24609 3.9375 2.1367 3.9375 4.3906s-1.6953 4.1484-3.9375 4.3906zm14.844 11.938c3.1094 0 5.6289-2.5156 5.6367-5.625v-3.3516c-0.13281-3.0156-2.6133-5.3945-5.6328-5.3945-3.0156 0-5.5 2.3789-5.6289 5.3945v3.3555-0.003907c0 1.4922 0.59375 2.9258 1.6484 3.9805 1.0547 1.0547 2.4844 1.6445 3.9766 1.6445zm-2.5-8.9805v0.003907c0.085938-1.3242 1.1797-2.3516 2.5039-2.3516 1.3242 0 2.4219 1.0273 2.5078 2.3516v3.3555-0.003907c-0.085938 1.3242-1.1836 2.3516-2.5078 2.3516-1.3242 0-2.418-1.0273-2.5039-2.3516zm9.707 1.6797c-0.007812-3.2305 2.1133-6.082 5.2148-7.0078 3.0977-0.92188 6.4336 0.30859 8.1914 3.0195 0.24609 0.34375 0.33594 0.77734 0.25781 1.1914-0.082032 0.41797-0.32422 0.78125-0.67969 1.0156-0.35547 0.23047-0.78906 0.30859-1.2031 0.21484-0.41016-0.09375-0.76953-0.35156-0.98828-0.71484-1.0078-1.543-2.9102-2.2383-4.6758-1.7109-1.7656 0.52734-2.9766 2.1484-2.9766 3.9922s1.2109 3.4648 2.9766 3.9922c1.7656 0.52734 3.668-0.16797 4.6758-1.7109 0.48438-0.6875 1.4297-0.87109 2.1328-0.41016 0.70703 0.46094 0.91797 1.3984 0.48047 2.1172-1.7578 2.7109-5.0938 3.9414-8.1914 3.0195-3.1016-0.92578-5.2227-3.7773-5.2148-7.0078zm-28.125 15.156h6.25v3.125c0.007813 3.875 3.1484 7.0156 7.0234 7.0195h3.043v3.043h-0.003907c0.007813 3.875 3.1484 7.0117 7.0234 7.0117h39.789c3.8711-0.007813 7.0117-3.1406 7.0234-7.0117v-60.062c-0.007813-3.875-3.1484-7.0156-7.0234-7.0195h-3.0391v-3.0742c-0.007813-3.875-3.1484-7.0117-7.0234-7.0117h-28.727c-0.41797-0.007812-0.81641 0.14844-1.1172 0.4375l-16.531 16.875c-0.27734 0.29688-0.43359 0.6875-0.4375 1.0938v14.773h-6.25c-3.0898 0.003906-5.5977 2.5117-5.6016 5.6016v19.594c0.003906 3.0938 2.5117 5.6016 5.6016 5.6055zm60.043 3.125v-53.926h3.082c1.0391 0 2.0312 0.41797 2.7656 1.1523 0.73047 0.73828 1.1367 1.7344 1.1328 2.7734v60.094c-0.007813 2.1484-1.75 3.8867-3.8984 3.8867h-39.801c-1.0312 0-2.0234-0.40625-2.7539-1.1367-0.73047-0.72656-1.1406-1.7188-1.1406-2.75v-3.043h33.633c1.8672 0 3.6602-0.74219 4.9766-2.0664s2.0547-3.1172 2.0469-4.9844zm-36.949-62.051v7.8828c-0.003906 2.1523-1.7461 3.8906-3.8945 3.8984h-7.668zm-13.719 14.914h9.8359c1.8594 0 3.6445-0.74219 4.9609-2.0625 1.3125-1.3203 2.0508-3.1055 2.0469-4.9688v-9.8125h26.844c1.0352 0 2.0234 0.40625 2.7539 1.1367 0.73437 0.72656 1.1445 1.7188 1.1445 2.75v60.094c0 2.1523-1.7461 3.8945-3.8984 3.8945h-39.801c-2.1445-0.011719-3.8789-1.75-3.8867-3.8945v-3.125h35.324c3.0938 0 5.6055-2.5078 5.6055-5.6055v-19.594c0-3.0938-2.5117-5.6016-5.6055-5.6016h-35.324zm-11.812 18.812c0.007813-1.3477 1.0898-2.4492 2.4375-2.4766h44.699c1.3672 0.003906 2.4727 1.1094 2.4805 2.4766v19.594c-0.007813 1.3672-1.1133 2.4766-2.4805 2.4805h-44.699c-1.3672-0.003906-2.4727-1.1133-2.4766-2.4805z"/>
<text x="0.0" y="117.5" font-size="5.0" font-weight="bold" font-family="Arbeit Regular, Helvetica, Arial-Unicode, Arial, Sans-serif" fill="#000000">Created by Asep Jangkar</text><text x="0.0" y="122.5" font-size="5.0" font-weight="bold" font-family="Arbeit Regular, Helvetica, Arial-Unicode, Arial, Sans-serif" fill="#000000">from Noun Project</text></svg>